<svg width="28" height="26" viewBox="0 0 28 26" fill="none" xmlns="http://www.w3.org/2000/svg">
<path d="M14.0714 3.79049C15.3162 2.60355 16.8418 1.83107 18.4498 1.63821C20.7812 1.35928 23.0345 2.12915 24.6741 3.76107C26.0889 5.1695 26.8654 7.04515 26.8593 9.03483C26.8593 11.0256 26.0784 12.9005 24.6621 14.3104L15.1662 23.7268C14.869 24.0229 14.4667 24.1831 14.0563 24.1831C13.645 24.1831 13.2433 24.0166 12.9473 23.7218L3.67001 14.4886C2.38896 13.2134 1.54847 11.6483 1.3333 9.99282C1.02918 7.66193 1.80613 5.3918 3.4593 3.74631C5.1102 2.10308 7.39777 1.32954 9.73776 1.63158C11.3244 1.83659 12.8282 2.61032 14.0714 3.79049Z" stroke="#DADADA" stroke-width="2"/>
</svg>
